%
M48
M72
T32C0.0320
T35C0.0350
T36C0.0360
T39C0.0390
%
T32
X23000Y18500
X24000Y18500
X25000Y18500
X26000Y18500
X27000Y18500
X28000Y18500
X29000Y18500
X30000Y18500
X30000Y21500
X29000Y21500
X28000Y21500
X27000Y21500
X26000Y21500
X25000Y21500
X24000Y21500
X23000Y21500
T35
X15000Y13000
X14000Y13000
X13000Y13000
X26500Y11875
X27500Y11875
X28500Y11875
T36
X9000Y10500
X9000Y11500
X17500Y17500
X19500Y17500
X21000Y14000
X21000Y11500
X19000Y11500
X12000Y20000
X9000Y20000
X17500Y22500
X19500Y22500
X33500Y17500
X33500Y16500
X33500Y15500
X33500Y14500
T39
X32500Y7000
X31500Y7000
X30500Y7000
X29500Y7000
X28500Y7000
X27500Y7000
X25500Y7000
X24500Y7000
X23500Y7000
X22500Y7000
X21500Y7000
X20500Y7000
X19500Y7000
X18500Y7000
X18900Y26000
X19900Y26000
X20900Y26000
X21900Y26000
X22900Y26000
X23900Y26000
X25500Y26000
X26500Y26000
X27500Y26000
X28500Y26000
X29500Y26000
X30500Y26000
X31500Y26000
X32500Y26000
X17900Y26000
X16900Y26000
X15900Y26000
X14900Y26000
M30
