<?xml version="1.0" encoding="UTF-8" standalone="no"?>
<svg
   xmlns:dc="http://purl.org/dc/elements/1.1/"
   xmlns:cc="http://creativecommons.org/ns#"
   xmlns:rdf="http://www.w3.org/1999/02/22-rdf-syntax-ns#"
   xmlns:svg="http://www.w3.org/2000/svg"
   xmlns="http://www.w3.org/2000/svg"
   xmlns:sodipodi="http://sodipodi.sourceforge.net/DTD/sodipodi-0.dtd"
   xmlns:inkscape="http://www.inkscape.org/namespaces/inkscape"
   width="210mm"
   height="297mm"
   viewBox="0 0 210 297"
   version="1.1"
   id="svg120"
   sodipodi:docname="alarm_bot_wheels.svg"
   inkscape:version="1.0.2-2 (e86c870879, 2021-01-15)">
  <defs
     id="defs114" />
  <sodipodi:namedview
     id="base"
     pagecolor="#ffffff"
     bordercolor="#666666"
     borderopacity="1.0"
     inkscape:pageopacity="0.0"
     inkscape:pageshadow="2"
     inkscape:zoom="1.2918751"
     inkscape:cx="558.40952"
     inkscape:cy="868.80764"
     inkscape:document-units="mm"
     inkscape:current-layer="layer1"
     inkscape:document-rotation="0"
     showgrid="false"
     inkscape:window-width="1920"
     inkscape:window-height="1017"
     inkscape:window-x="-8"
     inkscape:window-y="-8"
     inkscape:window-maximized="1"
     inkscape:object-paths="true"
     inkscape:snap-bbox="true"
     inkscape:bbox-paths="true"
     inkscape:bbox-nodes="true"
     inkscape:snap-bbox-edge-midpoints="true"
     inkscape:snap-bbox-midpoints="true"
     inkscape:snap-intersection-paths="true"
     inkscape:snap-smooth-nodes="true"
     inkscape:snap-midpoints="true"
     inkscape:snap-object-midpoints="true" />
  <metadata
     id="metadata117">
    <rdf:RDF>
      <cc:Work
         rdf:about="">
        <dc:format>image/svg+xml</dc:format>
        <dc:type
           rdf:resource="http://purl.org/dc/dcmitype/StillImage" />
      </cc:Work>
    </rdf:RDF>
  </metadata>
  <g
     inkscape:label="Layer 1"
     inkscape:groupmode="layer"
     id="layer1">
    <path
       id="path80"
       style="fill:none;stroke-width:0.0325143"
       d="m 100.67271,240.14166 a 50,50 0 0 1 -49.999998,50 50,50 0 0 1 -50.0000006,-50 50,50 0 0 1 50.0000006,-50 50,50 0 0 1 49.999998,50 z" />
    <path
       style="fill:none;stroke:none;stroke-width:0.264583px;stroke-linecap:butt;stroke-linejoin:miter;stroke-opacity:1"
       d="m 52.472711,240.14166 c 0,1.94486 0,1.94486 0,1.94486"
       id="path868" />
    <path
       style="fill:none;stroke:none;stroke-width:0.264583px;stroke-linecap:butt;stroke-linejoin:miter;stroke-opacity:1"
       d="m 52.472711,238.1968 c 0,1.94486 0,1.94486 0,1.94486"
       id="path868-4" />
    <path
       style="fill:none;stroke:none;stroke-width:0.264583px;stroke-linecap:butt;stroke-linejoin:miter;stroke-opacity:1"
       d="m 48.872712,240.14166 c 0,1.94486 0,1.94486 0,1.94486"
       id="path868-3" />
    <path
       style="fill:none;stroke:none;stroke-width:0.264583px;stroke-linecap:butt;stroke-linejoin:miter;stroke-opacity:1"
       d="m 48.872712,238.1968 c 0,1.94486 0,1.94486 0,1.94486"
       id="path868-45" />
    <path
       style="fill:none;stroke:none;stroke-width:0.264583px;stroke-linecap:butt;stroke-linejoin:miter;stroke-opacity:1"
       d="m 48.872579,238.19692 c 0.05268,-0.0475 0.111691,-0.0977 0.111691,-0.0977 l 0.09671,-0.0762 0.06157,-0.0449 0.0542,-0.0373 0.04997,-0.0327 0.05086,-0.0317 0.06349,-0.0374 0.08153,-0.0446 0.0585,-0.0297 0.06636,-0.0316 0.08376,-0.0367 0.08526,-0.0339 0.08202,-0.0294 0.109418,-0.0346 0.08207,-0.0226 0.130111,-0.0301 0.116486,-0.0212 0.09141,-0.0129 0.06048,-0.007 0.0648,-0.006 0.07464,-0.005 0.124788,-0.003 0.08423,10e-4 0.12455,0.007 0.133924,0.014 0.07203,0.0104 0.103015,0.0184 0.09548,0.0208 0.117951,0.0309 0.126328,0.0397 0.10287,0.0376 0.09581,0.0394 0.09503,0.0435 0.09949,0.0506 0.08603,0.0481 0.09496,0.0582 0.08351,0.0559 0.142105,0.10628 0.06856,0.0569 0.07427,0.0662"
       id="path940" />
    <path
       style="fill:none;stroke:none;stroke-width:0.264583px;stroke-linecap:butt;stroke-linejoin:miter;stroke-opacity:1"
       d="m 48.872711,242.08652 v 0"
       id="path944" />
    <path
       style="fill:none;stroke:none;stroke-width:0.264583px;stroke-linecap:butt;stroke-linejoin:miter;stroke-opacity:1"
       d="m 48.872579,242.0864 0.04805,0.0434 0.02976,0.0259 0.02426,0.0205 0.04522,0.0369 0.04443,0.0347 0.04988,0.0372 0.04087,0.0291 0.04979,0.034 0.05459,0.0354 0.0516,0.0317 0.06091,0.0354 0.06707,0.0365 0.04971,0.0255 0.02996,0.0147 0.07879,0.0365 0.06095,0.0262 0.07751,0.0307 0.06036,0.022 0.09296,0.0307 0.08417,0.0245 0.113964,0.0285 0.106151,0.0218 0.06503,0.0111 0.07264,0.0104 0.07114,0.008 0.08973,0.008 0.09976,0.005 0.08085,0.001 0.117581,-0.003 0.06527,-0.004 0.08337,-0.007 0.129981,-0.0164 0.09998,-0.0171 0.1147,-0.0245 0.121806,-0.0319 0.08643,-0.0265 0.07704,-0.0264 0.102748,-0.0394 0.09953,-0.0429 0.07155,-0.0339 0.07763,-0.0398 0.0773,-0.0429 0.0863,-0.052 0.0812,-0.0532 c 0,0 0.06607,-0.0464 0.07701,-0.0545 0.01095,-0.008 0.08542,-0.0655 0.08542,-0.0655 l 0.05668,-0.0466 0.03549,-0.0306 0.05312,-0.0478"
       id="path946" />
    <path
       id="path80-0"
       style="fill:none;stroke-width:0.0325143"
       d="m 205.12641,240.39158 a 50,50 0 0 1 -50,50 50,50 0 0 1 -50,-50 50,50 0 0 1 50,-50 50,50 0 0 1 50,50 z" />
    <path
       style="fill:none;stroke:none;stroke-width:0.264583px;stroke-linecap:butt;stroke-linejoin:miter;stroke-opacity:1"
       d="m 156.92641,240.39158 c 0,1.94486 0,1.94486 0,1.94486"
       id="path868-1" />
    <path
       style="fill:none;stroke:none;stroke-width:0.264583px;stroke-linecap:butt;stroke-linejoin:miter;stroke-opacity:1"
       d="m 156.92641,238.44672 c 0,1.94486 0,1.94486 0,1.94486"
       id="path868-4-9" />
    <path
       style="fill:none;stroke:none;stroke-width:0.264583px;stroke-linecap:butt;stroke-linejoin:miter;stroke-opacity:1"
       d="m 153.32641,240.39158 c 0,1.94486 0,1.94486 0,1.94486"
       id="path868-3-3" />
    <path
       style="fill:none;stroke:none;stroke-width:0.264583px;stroke-linecap:butt;stroke-linejoin:miter;stroke-opacity:1"
       d="m 153.32641,238.44672 c 0,1.94486 0,1.94486 0,1.94486"
       id="path868-45-1" />
    <path
       style="fill:none;stroke:none;stroke-width:0.264583px;stroke-linecap:butt;stroke-linejoin:miter;stroke-opacity:1"
       d="m 153.32628,238.44684 c 0.0527,-0.0475 0.11169,-0.0977 0.11169,-0.0977 l 0.0967,-0.0762 0.0616,-0.0449 0.0542,-0.0373 0.05,-0.0327 0.0509,-0.0317 0.0635,-0.0374 0.0815,-0.0446 0.0585,-0.0297 0.0664,-0.0316 0.0838,-0.0367 0.0853,-0.0339 0.082,-0.0294 0.10942,-0.0346 0.0821,-0.0226 0.13011,-0.0301 0.11648,-0.0212 0.0914,-0.0129 0.0605,-0.007 0.0648,-0.006 0.0746,-0.005 0.12479,-0.003 0.0842,10e-4 0.12455,0.007 0.13393,0.014 0.072,0.0104 0.10301,0.0184 0.0955,0.0208 0.11795,0.0309 0.12633,0.0397 0.10287,0.0376 0.0958,0.0394 0.095,0.0435 0.0995,0.0506 0.086,0.0481 0.095,0.0582 0.0835,0.0559 0.14211,0.10628 0.0686,0.0569 0.0743,0.0662"
       id="path940-2" />
    <path
       style="fill:none;stroke:none;stroke-width:0.264583px;stroke-linecap:butt;stroke-linejoin:miter;stroke-opacity:1"
       d="m 153.32641,242.33644 v 0"
       id="path944-1" />
    <path
       style="fill:none;stroke:none;stroke-width:0.264583px;stroke-linecap:butt;stroke-linejoin:miter;stroke-opacity:1"
       d="m 153.32628,242.33632 0.048,0.0434 0.0298,0.0259 0.0243,0.0205 0.0452,0.0369 0.0444,0.0347 0.0499,0.0372 0.0409,0.0291 0.0498,0.034 0.0546,0.0354 0.0516,0.0317 0.0609,0.0354 0.0671,0.0365 0.0497,0.0255 0.03,0.0147 0.0788,0.0365 0.0609,0.0262 0.0775,0.0307 0.0604,0.022 0.093,0.0307 0.0842,0.0245 0.11396,0.0285 0.10615,0.0218 0.065,0.0111 0.0726,0.0104 0.0711,0.008 0.0897,0.008 0.0998,0.005 0.0808,0.001 0.11758,-0.003 0.0653,-0.004 0.0834,-0.007 0.12999,-0.0164 0.1,-0.0171 0.1147,-0.0245 0.1218,-0.0319 0.0864,-0.0265 0.077,-0.0264 0.10275,-0.0394 0.0995,-0.0429 0.0716,-0.0339 0.0776,-0.0398 0.0773,-0.0429 0.0863,-0.052 0.0812,-0.0532 c 0,0 0.0661,-0.0464 0.077,-0.0545 0.0109,-0.008 0.0854,-0.0655 0.0854,-0.0655 l 0.0567,-0.0466 0.0355,-0.0306 0.0531,-0.0478"
       id="path946-9" />
    <circle
       style="fill:none;stroke-width:0.02;stroke:none"
       id="path23"
       cx="79.157387"
       cy="174.14166"
       r="16" />
    <circle
       style="fill:none;stroke-width:0.02;stroke:none"
       id="path25"
       cx="79.157387"
       cy="174.14166"
       r="4" />
    <circle
       style="fill:none;stroke-width:0.02;stroke:none"
       id="path23-2"
       cx="121.12641"
       cy="174.39159"
       r="16" />
    <circle
       style="fill:none;stroke-width:0.02;stroke:none"
       id="path25-4"
       cx="121.12641"
       cy="174.39159"
       r="4" />
  </g>
</svg>
